<svg xmlns="http://www.w3.org/2000/svg" data-name="Layer 1" viewBox="0 0 215 75">
  <defs/>
  <path fill="#010101" d="M70.6 11.9v13h-2.3L62 17v7.9h-2.8v-13h2.4l6.2 7.9v-7.9h2.8zm10.1 7.9l-2-5-2 5zm1 2.3h-5.9l-1 2.8h-3l5.5-13H80l5.6 13h-3zm6.2-7.8h-4v-2.4h10.9v2.4h-4v10.6h-2.9V14.3zm8.5-2.4h2.9v13h-2.9zM110 22a3.7 3.7 0 001.5-1.5 4.8 4.8 0 000-4.3 3.7 3.7 0 00-1.4-1.4 4 4 0 00-4 0 3.7 3.7 0 00-1.4 1.4 4.8 4.8 0 000 4.3A3.7 3.7 0 00106 22a4 4 0 004 0m-5.5 2.2a6.3 6.3 0 01-2.5-2.4 6.8 6.8 0 01-.9-3.4 6.7 6.7 0 011-3.5 6.3 6.3 0 012.4-2.4 7.5 7.5 0 017 0A6.5 6.5 0 01114 15a7 7 0 010 6.9 6.5 6.5 0 01-2.4 2.4 7.5 7.5 0 01-7 0M128 11.9v13h-2.4l-6.2-7.9v7.9h-2.9v-13h2.4l6.3 7.9v-7.9h2.8zm10 7.9l-2-5-2 5zm1 2.3h-5.8l-1.1 2.8h-3l5.6-13h2.8l5.6 13h-3zm5.2-10.2h2.9v10.5h6.5v2.5h-9.4v-13zM66.5 39l-2-5-2 5zm1 2.2h-5.9l-1 2.8h-3L63 31h3l5.6 13h-3zm6.7 2.6a6.6 6.6 0 01-2.2-1l1-2.3a6.3 6.3 0 002 1 6.8 6.8 0 002.1.3 3.4 3.4 0 001.8-.4 1.2 1.2 0 00.6-1 1 1 0 00-.3-.7 2.6 2.6 0 00-1-.5l-1.4-.4a19.6 19.6 0 01-2.3-.7 3.8 3.8 0 01-1.6-1.2 3.1 3.1 0 01-.6-2 3.6 3.6 0 01.6-2 4 4 0 011.7-1.5 7 7 0 013-.5 9.1 9.1 0 012.3.3 6.7 6.7 0 012 .8l-.9 2.2a6.8 6.8 0 00-3.5-1 3.1 3.1 0 00-1.7.4 1.3 1.3 0 00-.6 1.1 1 1 0 00.6 1 9.7 9.7 0 002 .6 20 20 0 012.4.7 3.9 3.9 0 011.5 1.2 3 3 0 01.7 2 3.6 3.6 0 01-.6 2 4.1 4.1 0 01-1.8 1.5 7 7 0 01-3 .5 9.8 9.8 0 01-2.8-.4m11.3 0a6.5 6.5 0 01-2.3-1l1-2.4a6.3 6.3 0 002 1 6.9 6.9 0 002.2.4 3.3 3.3 0 001.8-.4 1.1 1.1 0 00.6-1 1 1 0 00-.4-.7 2.5 2.5 0 00-.9-.5l-1.4-.4a19.4 19.4 0 01-2.4-.7 3.8 3.8 0 01-1.5-1.2 3.1 3.1 0 01-.7-2 3.7 3.7 0 01.6-2 4 4 0 011.8-1.5 7 7 0 012.9-.5 9.1 9.1 0 012.3.3 6.9 6.9 0 012 .8l-.9 2.3a6.8 6.8 0 00-3.4-1 3.1 3.1 0 00-1.8.4 1.3 1.3 0 00-.6 1 1 1 0 00.6 1 10 10 0 002 .7 19.2 19.2 0 012.4.7 3.7 3.7 0 011.6 1 3 3 0 01.7 2 3.7 3.7 0 01-.6 2 4 4 0 01-1.8 1.6 7 7 0 01-3 .5 9.8 9.8 0 01-2.8-.4m17.9-2.7a3.8 3.8 0 001.4-1.4 4.8 4.8 0 000-4.3 4 4 0 00-5.4-1.5 3.7 3.7 0 00-1.4 1.5 4.8 4.8 0 000 4.3 3.7 3.7 0 001.4 1.4 4 4 0 004 0m-5.5 2.2a6.3 6.3 0 01-2.4-2.4 7 7 0 010-6.8 6.3 6.3 0 012.4-2.4 7.4 7.4 0 017 0 6.4 6.4 0 012.4 2.4 7 7 0 010 6.8 6.4 6.4 0 01-2.4 2.4 7.4 7.4 0 01-7 0m14.8.1a6.3 6.3 0 01-2.4-2.4 7.2 7.2 0 010-7 6.3 6.3 0 012.4-2.3 6.9 6.9 0 013.5-.9 7 7 0 013 .6 5.8 5.8 0 012.1 1.7l-1.8 1.8a4 4 0 00-3.2-1.5 4 4 0 00-2 .5 3.7 3.7 0 00-1.5 1.5 4.8 4.8 0 000 4.3 3.7 3.7 0 001.5 1.5 4 4 0 002 .5 4 4 0 003.2-1.5l1.8 1.7a5.7 5.7 0 01-2.2 1.8 7 7 0 01-3 .6 6.9 6.9 0 01-3.4-1M123 31h2.9v13H123zm13.1 8l-2-5-2 5zm1 2.2h-5.9l-1.1 2.8h-3l5.6-13h2.8l5.6 13h-3zm6.1-7.7h-3.9V31h10.8v2.5h-4V44h-2.9V33.5zm8.6-2.5h2.9v13h-2.9zm13.6 10.1a3.8 3.8 0 001.4-1.4 4.9 4.9 0 000-4.3 3.8 3.8 0 00-1.4-1.5 4 4 0 00-4 0 3.8 3.8 0 00-1.4 1.5 4.8 4.8 0 000 4.3 3.8 3.8 0 001.4 1.4 4 4 0 004 0m-5.5 2.2a6.3 6.3 0 01-2.4-2.4 7.2 7.2 0 010-6.8 6.3 6.3 0 012.4-2.4 7 7 0 013.5-1 7 7 0 013.5 1 6.4 6.4 0 012.5 2.4 7 7 0 010 6.8 6.4 6.4 0 01-2.5 2.4 7 7 0 01-3.5 1 7 7 0 01-3.5-1M183.4 31v13H181l-6.2-7.9V44h-2.9V31h2.4l6.2 7.9V31h2.9zM199 41.1a3.8 3.8 0 001.3-1.4 4.8 4.8 0 000-4.3 3.8 3.8 0 00-1.4-1.5 4 4 0 00-4 0 3.8 3.8 0 00-1.4 1.5 4.8 4.8 0 000 4.3A3.8 3.8 0 00195 41a4 4 0 004 0m-5.5 2.2A6.3 6.3 0 01191 41a7 7 0 010-6.8 6.3 6.3 0 012.4-2.4 7.4 7.4 0 017 0 6.4 6.4 0 012.4 2.4 7 7 0 010 6.8 6.4 6.4 0 01-2.4 2.4 7.4 7.4 0 01-7 0m15.1-10v3.5h5.7v2.4h-5.7V44h-2.9V31h9.4v2.4h-6.5z"/>
  <path fill="#0e6cb6" d="M66.4 53.1a3 3 0 00-2-.5h-2.3V57h2.3a3 3 0 002-.6 2.4 2.4 0 000-3.4m.8 10l-2.4-3.6H62v3.7h-3v-13h5.5a6.6 6.6 0 012.9.5 4.3 4.3 0 011.9 1.7 5 5 0 010 5 4.3 4.3 0 01-2 1.6l2.9 4.1zm14.5-2.3v2.4H72v-13h9.5v2.4h-6.6v2.9h5.8v2.3h-5.8v3h6.8zm9.8-2.7l-2-5-2 5zm.9 2.3h-5.8L85.5 63h-3l5.6-13H91l5.6 13h-3zm5.3-10.2h2.8v10.6h6.3v2.4h-9.1v-13zm11.5 2.5h-4v-2.5h10.9v2.5h-4v10.5h-2.9V52.6zm16 7.6a3.7 3.7 0 001.4-1.4 4.8 4.8 0 000-4.3 3.7 3.7 0 00-1.4-1.5 4 4 0 00-4 0 3.7 3.7 0 00-1.4 1.5 4.8 4.8 0 000 4.3 3.7 3.7 0 001.4 1.4 4 4 0 004 0m-5.5 2.3a6.3 6.3 0 01-2.4-2.4 7.2 7.2 0 010-7 6.3 6.3 0 012.4-2.3 7 7 0 013.5-.9 7 7 0 013.5.9 6.3 6.3 0 012.5 2.4 7 7 0 010 6.8 6.3 6.3 0 01-2.5 2.5 7 7 0 01-3.4.8 7 7 0 01-3.6-.8m19.4-9.4a3 3 0 00-2-.5h-2.3V57h2.3a2.9 2.9 0 002-.6 2.4 2.4 0 000-3.4m.8 10l-2.5-3.6h-2.6v3.7h-2.9v-13h5.4a6.6 6.6 0 012.9.5 4.2 4.2 0 011.9 1.7 4.6 4.6 0 01.6 2.5 4.5 4.5 0 01-.6 2.5 4.2 4.2 0 01-2 1.6L143 63zm6.1 0a6.8 6.8 0 01-2.2-1.2l1-2.2a6.8 6.8 0 002 1 7.2 7.2 0 002.2.3 3.5 3.5 0 001.8-.4 1.1 1.1 0 00.6-1 1 1 0 00-.4-.7 2.6 2.6 0 00-.9-.5l-1.4-.4a20 20 0 01-2.4-.7 3.8 3.8 0 01-1.6-1.2 3.2 3.2 0 01-.6-2 3.8 3.8 0 01.6-2 4 4 0 011.8-1.5 7 7 0 012.9-.6 9.6 9.6 0 012.3.3 6.9 6.9 0 012 .9l-.9 2.3a6.8 6.8 0 00-3.5-1 3.2 3.2 0 00-1.8.4 1.3 1.3 0 00-.5 1 1 1 0 00.6 1 10.7 10.7 0 002 .7 19.4 19.4 0 012.4.7 4 4 0 011.6 1 3 3 0 01.6 2.1 3.7 3.7 0 01-.6 2 4 4 0 01-1.8 1.5 7 7 0 01-2.9.6 9.9 9.9 0 01-2.8-.5m13.1-9.7a.9.9 0 00.6-.2.6.6 0 00.2-.5.6.6 0 00-.2-.5.9.9 0 00-.6-.1h-.6v1.3zm1.7.1a1.4 1.4 0 01-.6.5l.9 1.4H160l-.8-1.2h-.7v1.2h-1V51h1.7a1.9 1.9 0 011.3.4 1.4 1.4 0 01.5 1.1 1.5 1.5 0 01-.2.8m-.3 2.5a3 3 0 001.1-1 3.3 3.3 0 00.4-1.7 3.3 3.3 0 00-.4-1.6 2.8 2.8 0 00-1-1 3 3 0 00-4.1 1 3.3 3.3 0 00-.4 1.6 3.2 3.2 0 00.4 1.6 3 3 0 001 1.1 2.9 2.9 0 001.5.5 2.8 2.8 0 001.5-.5m.4-6a3.5 3.5 0 011.3 1.4 4.1 4.1 0 010 3.9 3.7 3.7 0 01-1.3 1.4 3.6 3.6 0 01-3.7 0A3.6 3.6 0 01156 55a4 4 0 01-.5-2 4 4 0 01.5-1.9 3.6 3.6 0 011.3-1.4 3.6 3.6 0 011.9-.5 3.6 3.6 0 011.9.5m-115-37.9H0v51.4h46.1zM19.7 56.1H6.6V18.6h13.1zm10.2-37.5a9.3 9.3 0 019.5 9.7c0 7.5-6.5 9.1-9.6 9h-5.1V18.8zm-5.2 37.6V37.6l18 18.6z"/>
</svg>